<svg version="1.1"
	 xmlns="http://www.w3.org/2000/svg" xmlns:xlink="http://www.w3.org/1999/xlink" xmlns:a="http://ns.adobe.com/AdobeSVGViewerExtensions/3.0/"
	 x="0px" y="0px" width="178.4px" height="36px" viewBox="0 0 178.4 36" style="enable-background:new 0 0 178.4 36;"
	 xml:space="preserve">
<style type="text/css">
	.st0{fill:#444444;}
	.st1{fill:#007BFF;}
</style>
<defs>
</defs>
<g>
	<path class="st0" d="M17.8,18.7c0,1.5-0.2,2.8-0.6,4.1s-1,2.3-1.7,3.2c-0.8,0.9-1.7,1.6-2.8,2.1c-1.1,0.5-2.5,0.8-4,0.8
		c-1.4,0-2.7-0.2-3.8-0.7c-1.1-0.5-2-1.1-2.7-2s-1.3-1.9-1.6-3.1S0,20.5,0,19c0-1.5,0.2-2.8,0.6-4.1c0.4-1.2,0.9-2.3,1.7-3.2
		C3,10.8,4,10.1,5.1,9.6s2.5-0.8,4-0.8c1.4,0,2.7,0.2,3.8,0.7c1.1,0.5,2,1.1,2.7,2c0.7,0.9,1.3,1.9,1.6,3.1S17.8,17.1,17.8,18.7z
		 M15.2,18.9c0-1.1-0.1-2.1-0.3-3s-0.5-1.8-1-2.5c-0.5-0.7-1.1-1.3-1.9-1.7c-0.8-0.4-1.8-0.6-3-0.6c-1.1,0-2.1,0.2-2.9,0.6
		s-1.5,0.9-2,1.7c-0.5,0.7-0.9,1.5-1.1,2.5s-0.4,2-0.4,3.1c0,1.1,0.1,2.1,0.3,3c0.2,1,0.5,1.8,1,2.5s1.1,1.3,1.9,1.7s1.8,0.6,3,0.6
		c1.1,0,2.1-0.2,2.9-0.6s1.5-0.9,2-1.6c0.5-0.7,0.9-1.5,1.1-2.5S15.2,20,15.2,18.9z"/>
	<path class="st0" d="M39.5,18.6c0,1.6-0.2,3-0.5,4.3c-0.3,1.3-0.9,2.4-1.5,3.2c-0.7,0.9-1.5,1.6-2.5,2.1c-1,0.5-2.1,0.7-3.4,0.7
		c-0.5,0-1.1-0.1-1.5-0.2s-0.9-0.3-1.4-0.5c-0.5-0.2-0.9-0.6-1.4-0.9s-0.9-0.8-1.4-1.3v9.6c0,0.1,0,0.2-0.1,0.2s-0.1,0.1-0.2,0.2
		c-0.1,0-0.2,0.1-0.4,0.1c-0.2,0-0.4,0-0.6,0c-0.2,0-0.4,0-0.6,0c-0.2,0-0.3-0.1-0.4-0.1s-0.2-0.1-0.2-0.2c0-0.1-0.1-0.1-0.1-0.2
		V9.6c0-0.1,0-0.2,0.1-0.2c0-0.1,0.1-0.1,0.2-0.2c0.1,0,0.2-0.1,0.3-0.1c0.1,0,0.3,0,0.5,0s0.4,0,0.5,0c0.1,0,0.3,0.1,0.3,0.1
		s0.2,0.1,0.2,0.2s0.1,0.2,0.1,0.2v2.7c0.6-0.6,1.1-1.1,1.6-1.5c0.5-0.4,1-0.8,1.6-1.1s1.1-0.5,1.6-0.6s1.1-0.2,1.7-0.2
		c1.3,0,2.5,0.3,3.4,0.8c0.9,0.5,1.7,1.2,2.3,2.1c0.6,0.9,1,1.9,1.3,3.1C39.3,16,39.5,17.2,39.5,18.6z M36.9,19c0-1-0.1-2-0.2-3
		c-0.2-1-0.4-1.8-0.8-2.6c-0.4-0.8-0.9-1.4-1.6-1.8c-0.7-0.5-1.5-0.7-2.5-0.7c-0.5,0-1,0.1-1.4,0.2c-0.5,0.1-1,0.4-1.4,0.7
		s-1,0.7-1.5,1.2c-0.5,0.5-1.1,1.1-1.7,1.9v8.1c1,1.2,2,2.2,2.9,2.9c0.9,0.7,1.9,1,2.9,1c0.9,0,1.8-0.2,2.4-0.7
		c0.7-0.5,1.2-1.1,1.7-1.8s0.7-1.6,0.9-2.5C36.8,20.9,36.9,19.9,36.9,19z"/>
	<path class="st0" d="M60.2,17.9c0,0.5-0.1,0.8-0.4,1c-0.3,0.2-0.5,0.3-0.8,0.3H46.4c0,1.1,0.1,2.2,0.3,3.1c0.2,0.9,0.6,1.7,1.1,2.4
		c0.5,0.7,1.2,1.2,2,1.5s1.9,0.5,3.1,0.5c0.9,0,1.6-0.1,2.3-0.2s1.3-0.3,1.8-0.5c0.5-0.2,0.9-0.4,1.2-0.5c0.3-0.2,0.5-0.2,0.7-0.2
		c0.1,0,0.2,0,0.2,0.1s0.1,0.1,0.2,0.2c0,0.1,0.1,0.2,0.1,0.3c0,0.1,0,0.3,0,0.5c0,0.1,0,0.2,0,0.3s0,0.2-0.1,0.2
		c0,0.1-0.1,0.1-0.1,0.2s-0.1,0.1-0.2,0.2s-0.3,0.2-0.6,0.4s-0.8,0.3-1.4,0.5c-0.6,0.2-1.2,0.3-2,0.5c-0.8,0.1-1.6,0.2-2.5,0.2
		c-1.4,0-2.7-0.2-3.8-0.6c-1.1-0.4-2-1.1-2.8-1.9c-0.8-0.8-1.3-1.9-1.7-3.1c-0.4-1.2-0.6-2.7-0.6-4.3c0-1.6,0.2-3,0.6-4.2
		c0.4-1.2,1-2.3,1.7-3.2c0.8-0.9,1.7-1.5,2.7-2s2.2-0.7,3.5-0.7c1.4,0,2.6,0.2,3.6,0.7s1.8,1.1,2.4,1.9c0.6,0.8,1.1,1.7,1.4,2.7
		c0.3,1,0.4,2.1,0.4,3.3V17.9z M57.7,17.2c0-2-0.4-3.5-1.4-4.6s-2.3-1.7-4.1-1.7c-0.9,0-1.7,0.2-2.5,0.5c-0.7,0.3-1.3,0.8-1.8,1.4
		s-0.9,1.2-1.1,2c-0.3,0.8-0.4,1.5-0.5,2.4H57.7z"/>
	<path class="st0" d="M80.9,28.1c0,0.1,0,0.2-0.1,0.2s-0.1,0.1-0.2,0.2s-0.2,0.1-0.4,0.1s-0.4,0-0.6,0c-0.2,0-0.4,0-0.6,0
		s-0.3-0.1-0.4-0.1s-0.2-0.1-0.2-0.2s-0.1-0.1-0.1-0.2v-11c0-1.1-0.1-2.1-0.3-2.8c-0.2-0.7-0.4-1.3-0.8-1.8C77,12,76.6,11.6,76,11.3
		c-0.6-0.3-1.2-0.4-1.9-0.4c-0.9,0-1.9,0.3-2.8,1s-1.9,1.7-3,3v13.3c0,0.1,0,0.2-0.1,0.2s-0.1,0.1-0.2,0.2c-0.1,0-0.2,0.1-0.4,0.1
		c-0.2,0-0.4,0-0.6,0c-0.2,0-0.4,0-0.6,0c-0.2,0-0.3-0.1-0.4-0.1s-0.2-0.1-0.2-0.2c0-0.1-0.1-0.1-0.1-0.2V9.6c0-0.1,0-0.2,0.1-0.2
		c0-0.1,0.1-0.1,0.2-0.2s0.2-0.1,0.4-0.1c0.1,0,0.3,0,0.6,0s0.4,0,0.6,0c0.2,0,0.3,0.1,0.3,0.1s0.1,0.1,0.2,0.2
		c0,0.1,0.1,0.1,0.1,0.2v2.6c1.1-1.2,2.1-2.1,3.1-2.6s2-0.8,3.1-0.8c1.2,0,2.2,0.2,3.1,0.6s1.5,1,2,1.7c0.5,0.7,0.9,1.5,1.1,2.4
		c0.2,0.9,0.3,2.1,0.3,3.4V28.1z"/>
	<path class="st1" d="M104.7,20.9c0,0.7-0.1,1.2-0.2,1.6c-0.1,0.4-0.3,0.5-0.6,0.5h-2.4v4.8c0,0.1,0,0.3-0.1,0.4
		c-0.1,0.1-0.2,0.2-0.4,0.3s-0.5,0.1-0.8,0.2c-0.3,0-0.8,0.1-1.3,0.1c-0.5,0-0.9,0-1.2-0.1c-0.3,0-0.6-0.1-0.8-0.2s-0.3-0.2-0.4-0.3
		c-0.1-0.1-0.1-0.2-0.1-0.4v-4.8H86.2c-0.2,0-0.4,0-0.5-0.1c-0.2,0-0.3-0.2-0.4-0.3c-0.1-0.2-0.2-0.4-0.2-0.7c0-0.3-0.1-0.7-0.1-1.3
		c0-0.4,0-0.8,0-1.1c0-0.3,0.1-0.6,0.1-0.9s0.1-0.5,0.2-0.7s0.2-0.5,0.3-0.7l8.2-14.5c0.1-0.1,0.2-0.2,0.3-0.3s0.4-0.2,0.7-0.2
		C95.2,2,95.6,2,96.1,1.9s1,0,1.6,0c0.7,0,1.3,0,1.8,0.1c0.5,0,0.9,0.1,1.2,0.2c0.3,0.1,0.5,0.2,0.6,0.3s0.2,0.2,0.2,0.4v16h2.4
		c0.2,0,0.4,0.2,0.6,0.5C104.6,19.6,104.7,20.1,104.7,20.9z M96.3,6.5L96.3,6.5l-7,12.2h7V6.5z"/>
	<path class="st1" d="M118.9,26c0,0.6,0,1.1-0.1,1.4s-0.2,0.5-0.3,0.7c-0.1,0.1-0.3,0.2-0.5,0.3c-0.2,0.1-0.5,0.2-0.8,0.3
		s-0.7,0.1-1,0.2c-0.4,0-0.8,0.1-1.1,0.1c-1,0-1.9-0.1-2.7-0.4s-1.4-0.7-1.9-1.2c-0.5-0.5-0.9-1.2-1.1-2s-0.3-1.8-0.3-2.9V13h-2.2
		c-0.3,0-0.5-0.2-0.6-0.5c-0.1-0.3-0.2-0.9-0.2-1.6c0-0.4,0-0.7,0.1-1c0-0.3,0.1-0.5,0.2-0.6s0.2-0.3,0.3-0.3
		c0.1-0.1,0.2-0.1,0.4-0.1h2.2V4.8c0-0.1,0-0.3,0.1-0.4s0.2-0.2,0.4-0.3S110,4,110.3,4c0.3,0,0.7-0.1,1.2-0.1c0.5,0,0.9,0,1.3,0.1
		c0.3,0,0.6,0.1,0.8,0.2s0.3,0.2,0.4,0.3s0.1,0.2,0.1,0.4v4.1h4c0.1,0,0.3,0,0.4,0.1c0.1,0.1,0.2,0.2,0.3,0.3s0.1,0.4,0.2,0.6
		c0,0.3,0.1,0.6,0.1,1c0,0.8-0.1,1.3-0.2,1.6c-0.1,0.3-0.3,0.5-0.6,0.5h-4v8.6c0,1,0.2,1.7,0.5,2.2c0.3,0.5,0.9,0.7,1.7,0.7
		c0.3,0,0.5,0,0.7-0.1s0.4-0.1,0.6-0.2c0.2-0.1,0.3-0.1,0.4-0.2s0.2-0.1,0.3-0.1c0.1,0,0.2,0,0.2,0.1c0.1,0,0.1,0.1,0.2,0.3
		c0,0.1,0.1,0.3,0.1,0.6C118.9,25.3,118.9,25.7,118.9,26z"/>
	<path class="st1" d="M139.1,18.2c0,0.6-0.1,1.1-0.4,1.4c-0.3,0.3-0.7,0.5-1.2,0.5h-11.1c0,0.8,0.1,1.5,0.3,2.1
		c0.2,0.6,0.5,1.2,0.9,1.6c0.4,0.4,0.9,0.8,1.6,1c0.6,0.2,1.4,0.3,2.3,0.3c0.9,0,1.7-0.1,2.4-0.2s1.3-0.3,1.8-0.4
		c0.5-0.2,0.9-0.3,1.2-0.4s0.6-0.2,0.8-0.2c0.1,0,0.2,0,0.3,0.1s0.2,0.1,0.2,0.3s0.1,0.3,0.1,0.5c0,0.2,0,0.5,0,0.9
		c0,0.3,0,0.6,0,0.8c0,0.2,0,0.4-0.1,0.5s-0.1,0.3-0.1,0.4c-0.1,0.1-0.1,0.2-0.2,0.3c-0.1,0.1-0.3,0.2-0.7,0.4s-0.9,0.3-1.5,0.5
		c-0.6,0.2-1.3,0.3-2.1,0.4s-1.6,0.2-2.5,0.2c-1.6,0-3.1-0.2-4.3-0.6s-2.2-1-3.1-1.9s-1.4-1.9-1.8-3.2c-0.4-1.3-0.6-2.8-0.6-4.5
		c0-1.6,0.2-3.1,0.6-4.4s1-2.4,1.8-3.3c0.8-0.9,1.8-1.6,2.9-2.1s2.5-0.7,3.9-0.7c1.5,0,2.8,0.2,3.9,0.7c1.1,0.5,2,1.1,2.7,1.9
		c0.7,0.8,1.2,1.7,1.5,2.8s0.5,2.3,0.5,3.6V18.2z M134.1,16.7c0-1.4-0.3-2.6-0.9-3.4c-0.6-0.8-1.6-1.2-2.9-1.2
		c-0.7,0-1.2,0.1-1.7,0.4c-0.5,0.2-0.9,0.6-1.2,1s-0.6,0.9-0.7,1.5s-0.3,1.2-0.3,1.8H134.1z"/>
	<path class="st1" d="M157.2,24.9c0,0.4,0,0.7,0,0.9c0,0.2,0,0.4-0.1,0.6c0,0.2-0.1,0.3-0.1,0.4c0,0.1-0.2,0.2-0.3,0.4
		c-0.2,0.2-0.4,0.3-0.8,0.6c-0.4,0.2-0.8,0.4-1.4,0.6s-1.1,0.3-1.7,0.4c-0.6,0.1-1.2,0.2-1.8,0.2c-1.4,0-2.7-0.2-3.7-0.7
		c-1.1-0.4-2-1.1-2.7-1.9s-1.3-1.9-1.7-3.1c-0.4-1.2-0.6-2.6-0.6-4.2c0-1.8,0.2-3.4,0.7-4.7c0.5-1.3,1.1-2.4,1.9-3.3
		s1.8-1.5,2.9-1.9s2.4-0.6,3.7-0.6c0.5,0,1.1,0,1.6,0.1c0.5,0.1,1,0.2,1.5,0.4c0.5,0.2,0.9,0.3,1.2,0.6c0.4,0.2,0.6,0.4,0.8,0.5
		s0.3,0.3,0.3,0.4c0.1,0.1,0.1,0.2,0.1,0.4c0,0.2,0.1,0.4,0.1,0.6c0,0.2,0,0.5,0,0.9c0,0.8-0.1,1.4-0.2,1.7
		c-0.1,0.3-0.3,0.5-0.5,0.5c-0.2,0-0.5-0.1-0.7-0.3s-0.6-0.4-0.9-0.6s-0.8-0.4-1.3-0.6s-1.1-0.3-1.8-0.3c-1.3,0-2.4,0.5-3.1,1.5
		s-1.1,2.5-1.1,4.5c0,1,0.1,1.9,0.3,2.6s0.4,1.4,0.8,1.9c0.3,0.5,0.8,0.9,1.3,1.1c0.5,0.3,1.1,0.4,1.8,0.4c0.7,0,1.3-0.1,1.8-0.3
		c0.5-0.2,1-0.4,1.3-0.7s0.7-0.5,1-0.7s0.5-0.3,0.7-0.3c0.1,0,0.2,0,0.3,0.1s0.1,0.2,0.2,0.4c0,0.2,0.1,0.4,0.1,0.7
		S157.2,24.5,157.2,24.9z"/>
	<path class="st1" d="M178.4,27.8c0,0.1,0,0.3-0.1,0.4c-0.1,0.1-0.2,0.2-0.4,0.3s-0.5,0.1-0.8,0.2c-0.3,0-0.7,0.1-1.2,0.1
		c-0.5,0-0.9,0-1.3-0.1c-0.3,0-0.6-0.1-0.8-0.2s-0.3-0.2-0.4-0.3c-0.1-0.1-0.1-0.2-0.1-0.4V17.4c0-0.9-0.1-1.6-0.2-2.1
		c-0.1-0.5-0.3-0.9-0.6-1.3s-0.6-0.6-1-0.8c-0.4-0.2-0.8-0.3-1.4-0.3c-0.7,0-1.3,0.2-2,0.7s-1.4,1.2-2.1,2.1v12.2
		c0,0.1,0,0.3-0.1,0.4c-0.1,0.1-0.2,0.2-0.4,0.3c-0.2,0.1-0.5,0.1-0.8,0.2c-0.3,0-0.7,0.1-1.3,0.1s-0.9,0-1.3-0.1
		c-0.3,0-0.6-0.1-0.8-0.2s-0.3-0.2-0.4-0.3c-0.1-0.1-0.1-0.2-0.1-0.4v-27c0-0.1,0-0.3,0.1-0.4s0.2-0.2,0.4-0.3s0.5-0.1,0.8-0.2
		S163,0,163.5,0s0.9,0,1.3,0.1s0.6,0.1,0.8,0.2c0.2,0.1,0.3,0.2,0.4,0.3s0.1,0.2,0.1,0.4V11c0.9-0.9,1.8-1.5,2.7-2
		c0.9-0.4,1.9-0.6,2.9-0.6c1.2,0,2.3,0.2,3.1,0.6s1.5,1,2.1,1.7c0.5,0.7,0.9,1.5,1.1,2.5c0.2,1,0.3,2.1,0.3,3.5V27.8z"/>
</g>
</svg>
